# xmcd
#
# Track frame offsets: 
#        150
#        26797
#        48740
#        77315
#        95867
#        115020
#        141322
#        160045
#        175872
#        202370
#        221967
#        242395
#        263452
#        289462
#        309940
#
# Disc length: 4351 seconds
#
# Revision: 0
# Processed by: cddbd v1.5.2PL0 Copyright (c) Steve Scherf et al.
# Submitted via: ExactAudioCopy v1.0b3
#
DISCID=da10fd0f
DTITLE=Various Artist - Rave Trip To Remixland Vol. 1
DYEAR=1900
DGENRE=
TTITLE0=Trance Opera - Conquest Of Paradise (Dance Mix)
TTITLE1=C-Factory - Tears Don't Lie
TTITLE2=Magic Vision - Stay Another Day (Raving Baby Mix)
TTITLE3=Paco - Bright Eyes (Radio Eyes)
TTITLE4=Cabballero - Hymn (Radio Remix)
TTITLE5=Magic Vision - Here Comes The Hotstepper (Maxi Stepps)
TTITLE6=Paco - Lollipop (Lolli Mix)
TTITLE7=Subsonic Force - Everything Counts (Radio Cut)
TTITLE8=DJ Iwan - Russian Rave (Club Mix)
TTITLE9=Cabballero - Dancing With Tears In My Eyes (Short Rave)
TTITLE10=Los Pablos - Tierra Preciosa (Radio)
TTITLE11=Bonanza Techno Ska - Bonanza Techno Attack (Hop Sing Mix)
TTITLE12=Shat - Telstar (Rave Mix)
TTITLE13=Paco - Up Where We Belong (Little Paco Mix)
TTITLE14=Sixx-Pack - Roll Out The Barrel (Roll Out Mix)
EXTD=
EXTT0=
EXTT1=
EXTT2=
EXTT3=
EXTT4=
EXTT5=
EXTT6=
EXTT7=
EXTT8=
EXTT9=
EXTT10=
EXTT11=
EXTT12=
EXTT13=
EXTT14=
PLAYORDER=
